<?xml version="1.0" encoding="UTF-8"?>
<svg width="32px" height="32px" viewBox="0 0 32 32" version="1.1" xmlns="http://www.w3.org/2000/svg" xmlns:xlink="http://www.w3.org/1999/xlink">
    <!-- Generator: Sketch 43.2 (39069) - http://www.bohemiancoding.com/sketch -->
    <title>avatar-placeholder</title>
    <desc>Created with Sketch.</desc>
    <defs></defs>
    <g id="Symbols" stroke="none" stroke-width="1" fill="none" fill-rule="evenodd">
        <g id="my-development-navbar" transform="translate(-1184.000000, -16.000000)" fill="#FFFFFF">
            <g id="avatar-placeholder">
                <g transform="translate(1184.000000, 16.000000)">
                    <path d="M0,16 C0,24.8 7.2,32 16,32 C24.8,32 32,24.8 32,16 C32,7.2 24.8,0 16,0 C7.2,0 0,7.2 0,16 Z M20.8,9.6 C20.8,12.32 18.72,14.4 16,14.4 C13.28,14.4 11.2,12.32 11.2,9.6 C11.2,6.88 13.28,4.8 16,4.8 C18.72,4.8 20.8,6.88 20.8,9.6 Z M6.4,22.4 C6.4,19.2 12.8,17.44 16,17.44 C19.2,17.44 25.6,19.2 25.6,22.4 C23.52,25.44 20,27.52 16,27.52 C12,27.52 8.48,25.44 6.4,22.4 Z"></path>
                </g>
            </g>
        </g>
    </g>
</svg>